<?xml version="1.0" encoding="UTF-8"?>
<svg width="84px" height="100px" viewBox="0 0 84 100" version="1.1" xmlns="http://www.w3.org/2000/svg" xmlns:xlink="http://www.w3.org/1999/xlink">
    <title>Group 4</title>
    <g id="Final-HI-Fi" stroke="none" stroke-width="1" fill="none" fill-rule="evenodd">
        <g id="Dashboard" transform="translate(-32, -129)" stroke="#000000">
            <g id="Group-4" transform="translate(32, 129)">
                <path d="M20.9994499,43.621936 L43.2529735,58.7363728 C43.6772884,59.0245645 43.8147514,59.5870658 43.5711787,60.0384746 L26.499661,91.6788729 C26.2359928,92.1641538 25.6288496,92.3438064 25.1435687,92.0801382 C24.8333407,91.9115817 24.6349865,91.5919275 24.6216915,91.239116 C24.2541597,81.8842854 22.7414791,76.4100841 20.0837514,74.8165083 C17.36761,73.1879076 11.6116554,74.5067985 2.81588762,78.7731809 L2.81658978,78.7746328 C2.31939647,79.015085 1.72141664,78.8069552 1.48096445,78.3097619 C1.34156589,78.0215215 1.34861735,77.68396 1.49993141,77.4017924 L19.5577241,43.9739627 C19.8201754,43.4880226 20.4268665,43.3068491 20.9128066,43.5693004 C20.942559,43.5853694 20.9714773,43.6029372 20.9994499,43.621936 Z" id="Path-8" fill="#FF6700"></path>
                <g id="Group-3" transform="translate(9, 0)">
                    <path d="M14.9385649,50.5967165 L30.0028369,59.4988778 C30.4783059,59.7798541 30.6359735,60.3930741 30.3549973,60.8685431 C30.3513721,60.8746778 30.3476814,60.8807734 30.3439259,60.8868292 L19.0760631,79.0588478 C18.784626,79.5279777 18.1680646,79.6720261 17.6989347,79.380589 C17.4252,79.2105371 17.2501903,78.9189908 17.2288279,78.5974445 C16.8988137,73.4688337 15.8545589,70.4458743 14.0962159,69.5285562 C12.2862262,68.5842943 8.55298243,69.2625762 2.89648465,71.5634021 L2.8969148,71.5644683 C2.38474341,71.7711054 1.80203395,71.523421 1.5953968,71.0112496 C1.47608068,70.7155124 1.5049708,70.3806013 1.67316929,70.1096657 L13.5801926,50.9302338 C13.8669858,50.4682178 14.4704078,50.3200613 14.9385649,50.5967165 Z" id="Path-8" fill="#FF8500"></path>
                    <path d="M54.4306007,44.1254877 L74.4102524,60.523935 C74.7585229,60.8097806 74.8726302,61.2932272 74.688931,61.7046329 L59.4153708,95.9114848 C59.1924575,96.4167848 58.6021239,96.6457044 58.0968239,96.4227911 C57.7471987,96.2685538 57.5160404,95.9285499 57.5011987,95.5467035 C57.1495313,85.5599339 55.7884516,79.7076966 53.4178238,77.9899969 C50.9848186,76.2271 45.8489378,77.6312417 38.0101815,82.202422 L38.0109832,82.2038054 C37.5331296,82.4807069 36.9212798,82.317803 36.6443784,81.8399494 C36.4831852,81.5617756 36.4655679,81.2230651 36.5970321,80.9296694 L52.8832054,44.490432 C53.1085576,43.986215 53.6999903,43.7601504 54.2042074,43.9855026 C54.2855725,44.0218676 54.3617112,44.0689462 54.4306007,44.1254877 Z" id="Path-8" fill="#FF6700" transform="translate(55.1471, 71.6471) scale(-1, 1) translate(-55.1471, -71.6471)"></path>
                    <path d="M52.9832015,51.3616022 L66.3887863,60.9603986 C66.7914185,61.2486951 66.9224092,61.7882552 66.696787,62.229075 L56.719381,81.7217301 C56.4678857,82.2134298 55.8654071,82.4081538 55.3737074,82.1566585 C55.0580679,81.9952146 54.8515047,81.6787151 54.8307887,81.3247896 C54.5162853,75.9473744 53.5860135,72.7700237 52.0399705,71.7927378 C50.4338062,70.7774479 47.1383841,71.4889476 42.1537045,73.9272367 L42.1542204,73.9282952 C41.657773,74.1702837 41.0591524,73.964004 40.817164,73.4675566 C40.6795503,73.1852375 40.6825668,72.8546682 40.8253097,72.5749075 L51.5110209,51.7187115 C51.7628368,51.2271759 52.3654422,51.0328447 52.8569778,51.2846606 C52.900893,51.3071585 52.9430828,51.332876 52.9832015,51.3616022 Z" id="Path-8" fill="#FF8500" transform="translate(53.2458, 67.9342) scale(-1, 1) translate(-53.2458, -67.9342)"></path>
                    <ellipse id="Oval" fill="#FFD500" cx="36.5674387" cy="32.8893387" rx="31.4852941" ry="32.3893387"></ellipse>
                    <ellipse id="Oval" fill="#F6E6D7" cx="36.5674387" cy="32.8893387" rx="24.8676471" ry="25.5846479"></ellipse>
                </g>
            </g>
        </g>
    </g>
</svg>